<svg xmlns="http://www.w3.org/2000/svg" xmlns:xlink="http://www.w3.org/1999/xlink" viewBox="0 0 165.98 191.02"><defs><style>.cls-1,.cls-2,.cls-3,.cls-4,.cls-5,.cls-6,.cls-7{fill-rule:evenodd;}.cls-1{fill:url(#linear-gradient);}.cls-2{fill:#5a03b4;}.cls-3{fill:#370fcf;}.cls-4{fill:#9a00c6;}.cls-5{fill:#b700eb;}.cls-6{fill:#0f55e3;}.cls-7{fill:#db00f5;}</style><linearGradient id="linear-gradient" x1="17.65" y1="160.85" x2="148.33" y2="30.17" gradientUnits="userSpaceOnUse"><stop offset="0" stop-color="#0f55e3"/><stop offset="0.33" stop-color="#370fcf"/><stop offset="0.68" stop-color="#9a00c6"/><stop offset="1" stop-color="#e100a9"/></linearGradient></defs><title>prezentvr_logo</title><g id="Group_1_copy_3" data-name="Group 1 copy 3"><path class="cls-1" d="M83,191,0,143.24,0,47.73,83,0l83,47.78,0,95.51ZM162.95,49.78,83,4,3,49.73l0,91.51L83,187l80-45.73Z"/><polygon class="cls-2" points="129.99 63.78 82.99 36.52 82.99 68.52 129.99 95.78 129.99 63.78"/><polygon class="cls-3" points="129.99 63.84 82.99 91.1 82.99 123.1 129.99 95.84 129.99 63.84"/><g id="Shape_2_copy_3" data-name="Shape 2 copy 3"><polygon class="cls-4" points="82.98 36.51 54.99 52.7 54.99 138.3 82.99 154.5 82.99 36.52 82.98 36.51"/></g><g id="Shape_4_copy_4" data-name="Shape 4 copy 4"><polygon class="cls-5" points="54.99 107.35 82.99 123.1 82.99 91.1 54.99 107.35"/></g><g id="Shape_4_copy_2" data-name="Shape 4 copy 2"><polygon class="cls-6" points="102.46 79.81 129.99 95.84 129.99 63.78 102.46 79.81"/></g><g id="Shape_4" data-name="Shape 4"><polygon class="cls-7" points="54.99 52.7 82.99 68.52 82.99 36.52 54.99 52.7"/></g></g></svg>